<svg xmlns="http://www.w3.org/2000/svg" width="900" height="235" viewBox="0 0 900 235" role="img" aria-label="GolfPoolPro logo">
  <defs>
    <linearGradient id="gold" x1="0%" y1="0%" x2="100%" y2="100%">
      <stop offset="0%" stop-color="#e8c96a"/>
      <stop offset="55%" stop-color="#c9a227"/>
      <stop offset="100%" stop-color="#9a7510"/>
    </linearGradient>
    <linearGradient id="goldDark" x1="0%" y1="0%" x2="100%" y2="100%">
      <stop offset="0%" stop-color="#3a2d08"/>
      <stop offset="100%" stop-color="#6b5312"/>
    </linearGradient>
    <radialGradient id="shieldGlow" cx="45%" cy="40%" r="65%">
      <stop offset="0%" stop-color="#e8c96a" stop-opacity="0.18"/>
      <stop offset="100%" stop-color="#e8c96a" stop-opacity="0"/>
    </radialGradient>
  </defs>

  <g transform="translate(48,12)">
    <!-- Transparent icon (no white background) -->
    <g transform="translate(0,6) scale(0.86)">
      <path d="M10 16 H180 L194 30 V152 C194 197 153 223 102 237 C52 223 10 197 10 152 V30 Z" fill="url(#goldDark)" stroke="url(#gold)" stroke-width="7"/>
      <path d="M22 34 H168 L176 42 V149 C176 184 145 205 102 217 C60 205 28 184 28 149 V42 Z" fill="none" stroke="url(#gold)" stroke-width="2.4" opacity="0.45"/>
      <ellipse cx="102" cy="64" rx="54" ry="42" fill="url(#shieldGlow)"/>
      <circle cx="62" cy="57" r="3" fill="url(#gold)"/>
      <circle cx="101" cy="47" r="3.8" fill="url(#gold)"/>
      <circle cx="140" cy="57" r="3" fill="url(#gold)"/>
      <path d="M102 82 V121" stroke="url(#gold)" stroke-width="5" stroke-linecap="round"/>
      <polygon points="102,84 142,97 102,110" fill="url(#gold)"/>
      <ellipse cx="103" cy="177" rx="58" ry="20" fill="url(#gold)" opacity="0.35"/>
      <circle cx="78" cy="169" r="16" fill="#f2f5f4" stroke="#c9d1cf" stroke-width="2"/>
      <g stroke="#c9d1cf" stroke-width="1.2" opacity="0.95" fill="none">
        <path d="M67 166 C74 158, 82 158, 89 166"/>
        <path d="M67 170 C74 178, 82 178, 89 170"/>
        <path d="M74 156 C79 164, 79 173, 74 181"/>
        <path d="M83 156 C78 164, 78 173, 83 181"/>
      </g>
    </g>

    <!-- Wordmark: explicit split so f/P never overlap -->
    <text x="245" y="138" font-family="Playfair Display, Georgia, serif" font-size="86" font-weight="700" fill="url(#gold)">Golf</text>
    <text x="432" y="138" font-family="Playfair Display, Georgia, serif" font-size="86" font-weight="700" fill="#f6f6f5">PoolPro</text>
  </g>
</svg>
