<svg xmlns="http://www.w3.org/2000/svg" viewBox="0 0 94 115" role="img" aria-label="GolfPoolPro icon">
  <defs>
    <linearGradient id="gold" x1="0%" y1="0%" x2="100%" y2="100%">
      <stop offset="0%" stop-color="#e8c96a"/>
      <stop offset="55%" stop-color="#c9a227"/>
      <stop offset="100%" stop-color="#9a7510"/>
    </linearGradient>
    <linearGradient id="goldDark" x1="0%" y1="0%" x2="100%" y2="100%">
      <stop offset="0%" stop-color="#3a2d08"/>
      <stop offset="100%" stop-color="#6b5312"/>
    </linearGradient>
    <radialGradient id="shieldGlow" cx="45%" cy="40%" r="65%">
      <stop offset="0%" stop-color="#e8c96a" stop-opacity="0.18"/>
      <stop offset="100%" stop-color="#e8c96a" stop-opacity="0"/>
    </radialGradient>
  </defs>

  <!-- Transparent background -->
  <path d="M10 16 H80 L86 22 V68 C86 89 68 102 47 108 C26 102 8 89 8 68 V22 Z" fill="url(#goldDark)" stroke="url(#gold)" stroke-width="4"/>
  <path d="M15 24 H77 L81 28 V67 C81 85 66 96 47 101 C28 96 13 85 13 67 V28 Z" fill="none" stroke="url(#gold)" stroke-width="1.6" opacity="0.45"/>
  <ellipse cx="47" cy="37" rx="24" ry="20" fill="url(#shieldGlow)"/>

  <!-- Gold stars + flag + fairway (all theme-matched) -->
  <circle cx="31" cy="34" r="1.8" fill="url(#gold)"/>
  <circle cx="45" cy="30" r="2.2" fill="url(#gold)"/>
  <circle cx="61" cy="34" r="1.8" fill="url(#gold)"/>

  <path d="M45 45 V64" stroke="url(#gold)" stroke-width="2.4" stroke-linecap="round"/>
  <polygon points="45,47 63,53 45,59" fill="url(#gold)"/>

  <ellipse cx="47" cy="83" rx="28" ry="10" fill="url(#gold)" opacity="0.35"/>

  <!-- Golf ball -->
  <circle cx="36" cy="79" r="7.8" fill="#f2f5f4" stroke="#c9d1cf" stroke-width="1"/>
  <g stroke="#c9d1cf" stroke-width="0.6" opacity="0.9" fill="none">
    <path d="M31 78 C34 74, 38 74, 41 78"/>
    <path d="M31 80 C34 84, 38 84, 41 80"/>
    <path d="M34 73 C36 76, 36 82, 34 85"/>
    <path d="M38 73 C36 76, 36 82, 38 85"/>
  </g>
</svg>
