<svg xmlns="http://www.w3.org/2000/svg" width="1180" height="260" viewBox="0 0 1180 260" role="img" aria-label="MyGolfPoolPro logo">
  <defs>
    <radialGradient id="sg" cx="50%" cy="35%" r="65%">
      <stop offset="0%" stop-color="#2e6644"/>
      <stop offset="100%" stop-color="#0e2b1a"/>
    </radialGradient>
    <linearGradient id="gg" x1="0%" y1="0%" x2="100%" y2="100%">
      <stop offset="0%" stop-color="#e8c96a"/>
      <stop offset="50%" stop-color="#c9a227"/>
      <stop offset="100%" stop-color="#9a7510"/>
    </linearGradient>
    <linearGradient id="bg" x1="0%" y1="0%" x2="0%" y2="100%">
      <stop offset="0%" stop-color="#e8c96a"/>
      <stop offset="100%" stop-color="#7a5c08"/>
    </linearGradient>
    <linearGradient id="divider" x1="0%" y1="0%" x2="100%" y2="0%">
      <stop offset="0%" stop-color="#c9a227" stop-opacity="0.8"/>
      <stop offset="100%" stop-color="#c9a227" stop-opacity="0"/>
    </linearGradient>
    <filter id="ds" x="-20%" y="-20%" width="140%" height="140%">
      <feDropShadow dx="0" dy="2" stdDeviation="3" flood-color="#000" flood-opacity="0.35"/>
    </filter>
  </defs>
  <g transform="translate(20,20)">
    <g transform="translate(0,0) scale(1.35)">
      <path d="M5,5 L89,5 L94,10 L94,68 Q94,100 47,112 Q0,100 0,68 L0,10 Z" fill="url(#bg)" filter="url(#ds)"/>
      <path d="M7,9 L87,9 L91,13 L91,68 Q91,97 47,108 Q3,97 3,68 L3,13 Z" fill="url(#sg)"/>
      <path d="M11,17 L83,17 L86,20 L86,67 Q86,92 47,102 Q8,92 8,67 L8,20 Z" fill="none" stroke="url(#gg)" stroke-width="1" opacity="0.35"/>
      <circle cx="29" cy="28" r="1.5" fill="url(#gg)" opacity="0.7"/>
      <circle cx="47" cy="22" r="2" fill="url(#gg)" opacity="0.85"/>
      <circle cx="65" cy="28" r="1.5" fill="url(#gg)" opacity="0.7"/>
      <line x1="12" y1="36" x2="82" y2="36" stroke="url(#gg)" stroke-width="0.8" opacity="0.5"/>
      <ellipse cx="47" cy="90" rx="32" ry="10" fill="#1a4a2a" opacity="0.6"/>
      <ellipse cx="47" cy="87" rx="26" ry="7" fill="#2d6b3e"/>
      <line x1="47" y1="52" x2="47" y2="87" stroke="url(#gg)" stroke-width="1.8" stroke-linecap="round"/>
      <polygon points="47,52 66,58 47,64" fill="url(#gg)"/>
      <circle cx="41" cy="82" r="7" fill="white" filter="url(#ds)"/>
      <path d="M35.5,80 Q41,76.5 46.5,80" stroke="#ccc" stroke-width="0.7" fill="none" stroke-linecap="round"/>
      <path d="M35,82.5 Q41,79 47,82.5" stroke="#ccc" stroke-width="0.7" fill="none" stroke-linecap="round"/>
      <path d="M35.5,85 Q41,88 46.5,85" stroke="#ccc" stroke-width="0.7" fill="none" stroke-linecap="round"/>
      <path d="M38,77.5 Q41,83 38,88" stroke="#ccc" stroke-width="0.7" fill="none" stroke-linecap="round"/>
      <path d="M44,77.5 Q41,83 44,88" stroke="#ccc" stroke-width="0.7" fill="none" stroke-linecap="round"/>
    </g>
    <text x="155" y="124" font-family="Playfair Display, Georgia, serif" font-size="92" font-weight="700" letter-spacing="0">
      <tspan fill="#ffffff">My</tspan><tspan fill="url(#gg)">Golf</tspan><tspan dx="8" fill="#ffffff">PoolPro</tspan>
    </text>
    <line x1="155" y1="143" x2="1110" y2="143" stroke="url(#divider)" stroke-width="2"/>
    <text x="634" y="184" text-anchor="middle" font-family="Montserrat, Arial, sans-serif" font-size="34" font-weight="600" letter-spacing="9" fill="#7aaa8e">DRAFT · TRACK · WIN</text>
  </g>
</svg>
